<mxfile host="app.diagrams.net" agent="Mozilla/5.0 (Windows NT 10.0; Win64; x64) AppleWebKit/537.36 (KHTML, like Gecko) Chrome/132.0.0.0 Safari/537.36 Edg/132.0.0.0" version="26.0.10">
  <diagram id="C5RBs43oDa-KdzZeNtuy" name="Page-1">
    <mxGraphModel dx="2316" dy="2425" grid="1" gridSize="10" guides="1" tooltips="1" connect="1" arrows="1" fold="1" page="1" pageScale="1" pageWidth="827" pageHeight="1169" math="0" shadow="0">
      <root>
        <mxCell id="WIyWlLk6GJQsqaUBKTNV-0" />
        <mxCell id="WIyWlLk6GJQsqaUBKTNV-1" parent="WIyWlLk6GJQsqaUBKTNV-0" />
        <mxCell id="y1Mp3N0kVFIcVa1Vwtxq-2" style="edgeStyle=orthogonalEdgeStyle;rounded=0;orthogonalLoop=1;jettySize=auto;html=1;" parent="WIyWlLk6GJQsqaUBKTNV-1" source="WIyWlLk6GJQsqaUBKTNV-3" target="y1Mp3N0kVFIcVa1Vwtxq-0" edge="1">
          <mxGeometry relative="1" as="geometry" />
        </mxCell>
        <mxCell id="WIyWlLk6GJQsqaUBKTNV-3" value="User membuka website pembuatan CV" style="rounded=1;whiteSpace=wrap;html=1;fontSize=12;glass=0;strokeWidth=1;shadow=0;" parent="WIyWlLk6GJQsqaUBKTNV-1" vertex="1">
          <mxGeometry x="160" y="70" width="120" height="40" as="geometry" />
        </mxCell>
        <mxCell id="y1Mp3N0kVFIcVa1Vwtxq-11" style="edgeStyle=orthogonalEdgeStyle;rounded=0;orthogonalLoop=1;jettySize=auto;html=1;entryX=1;entryY=0.5;entryDx=0;entryDy=0;" parent="WIyWlLk6GJQsqaUBKTNV-1" source="WIyWlLk6GJQsqaUBKTNV-7" target="y1Mp3N0kVFIcVa1Vwtxq-0" edge="1">
          <mxGeometry relative="1" as="geometry">
            <Array as="points">
              <mxPoint x="600" y="180" />
            </Array>
          </mxGeometry>
        </mxCell>
        <mxCell id="WIyWlLk6GJQsqaUBKTNV-7" value="Daftar" style="rounded=1;whiteSpace=wrap;html=1;fontSize=12;glass=0;strokeWidth=1;shadow=0;" parent="WIyWlLk6GJQsqaUBKTNV-1" vertex="1">
          <mxGeometry x="540" y="290" width="120" height="40" as="geometry" />
        </mxCell>
        <mxCell id="y1Mp3N0kVFIcVa1Vwtxq-23" style="edgeStyle=orthogonalEdgeStyle;rounded=0;orthogonalLoop=1;jettySize=auto;html=1;" parent="WIyWlLk6GJQsqaUBKTNV-1" target="y1Mp3N0kVFIcVa1Vwtxq-13" edge="1">
          <mxGeometry relative="1" as="geometry">
            <mxPoint x="280" y="445" as="sourcePoint" />
          </mxGeometry>
        </mxCell>
        <mxCell id="y1Mp3N0kVFIcVa1Vwtxq-8" style="edgeStyle=orthogonalEdgeStyle;rounded=0;orthogonalLoop=1;jettySize=auto;html=1;entryX=0.5;entryY=0;entryDx=0;entryDy=0;" parent="WIyWlLk6GJQsqaUBKTNV-1" source="y1Mp3N0kVFIcVa1Vwtxq-0" target="y1Mp3N0kVFIcVa1Vwtxq-1" edge="1">
          <mxGeometry relative="1" as="geometry">
            <mxPoint x="220" y="250" as="targetPoint" />
          </mxGeometry>
        </mxCell>
        <mxCell id="y1Mp3N0kVFIcVa1Vwtxq-0" value="User melakukan pembuatan CV" style="rounded=1;whiteSpace=wrap;html=1;fontSize=12;glass=0;strokeWidth=1;shadow=0;gradientColor=none;" parent="WIyWlLk6GJQsqaUBKTNV-1" vertex="1">
          <mxGeometry x="160" y="160" width="120" height="40" as="geometry" />
        </mxCell>
        <mxCell id="y1Mp3N0kVFIcVa1Vwtxq-4" style="edgeStyle=orthogonalEdgeStyle;rounded=0;orthogonalLoop=1;jettySize=auto;html=1;" parent="WIyWlLk6GJQsqaUBKTNV-1" source="y1Mp3N0kVFIcVa1Vwtxq-1" edge="1">
          <mxGeometry relative="1" as="geometry">
            <mxPoint x="370" y="310" as="targetPoint" />
          </mxGeometry>
        </mxCell>
        <mxCell id="y1Mp3N0kVFIcVa1Vwtxq-41" style="edgeStyle=orthogonalEdgeStyle;rounded=0;orthogonalLoop=1;jettySize=auto;html=1;entryX=0.5;entryY=0;entryDx=0;entryDy=0;" parent="WIyWlLk6GJQsqaUBKTNV-1" source="y1Mp3N0kVFIcVa1Vwtxq-1" target="y1Mp3N0kVFIcVa1Vwtxq-39" edge="1">
          <mxGeometry relative="1" as="geometry" />
        </mxCell>
        <mxCell id="y1Mp3N0kVFIcVa1Vwtxq-1" value="Apakah sudah memiliki account" style="rhombus;whiteSpace=wrap;html=1;shadow=0;fontFamily=Helvetica;fontSize=12;align=center;strokeWidth=1;spacing=6;spacingTop=-4;" parent="WIyWlLk6GJQsqaUBKTNV-1" vertex="1">
          <mxGeometry x="157.5" y="260" width="125" height="100" as="geometry" />
        </mxCell>
        <mxCell id="y1Mp3N0kVFIcVa1Vwtxq-10" style="edgeStyle=orthogonalEdgeStyle;rounded=0;orthogonalLoop=1;jettySize=auto;html=1;" parent="WIyWlLk6GJQsqaUBKTNV-1" edge="1">
          <mxGeometry relative="1" as="geometry">
            <mxPoint x="540" y="310" as="targetPoint" />
            <mxPoint x="490" y="310" as="sourcePoint" />
          </mxGeometry>
        </mxCell>
        <mxCell id="y1Mp3N0kVFIcVa1Vwtxq-7" value="Tidak" style="text;strokeColor=none;align=center;fillColor=none;html=1;verticalAlign=middle;whiteSpace=wrap;rounded=0;" parent="WIyWlLk6GJQsqaUBKTNV-1" vertex="1">
          <mxGeometry x="290" y="276" width="60" height="30" as="geometry" />
        </mxCell>
        <mxCell id="y1Mp3N0kVFIcVa1Vwtxq-9" value="Ya" style="text;html=1;align=center;verticalAlign=middle;resizable=0;points=[];autosize=1;strokeColor=none;fillColor=none;" parent="WIyWlLk6GJQsqaUBKTNV-1" vertex="1">
          <mxGeometry x="164" y="355" width="40" height="30" as="geometry" />
        </mxCell>
        <mxCell id="y1Mp3N0kVFIcVa1Vwtxq-24" style="edgeStyle=orthogonalEdgeStyle;rounded=0;orthogonalLoop=1;jettySize=auto;html=1;entryX=0;entryY=0.5;entryDx=0;entryDy=0;" parent="WIyWlLk6GJQsqaUBKTNV-1" source="y1Mp3N0kVFIcVa1Vwtxq-13" edge="1">
          <mxGeometry relative="1" as="geometry">
            <mxPoint x="500" y="445" as="targetPoint" />
          </mxGeometry>
        </mxCell>
        <mxCell id="y1Mp3N0kVFIcVa1Vwtxq-13" value="Memilih template CV" style="rounded=1;whiteSpace=wrap;html=1;fontSize=12;glass=0;strokeWidth=1;shadow=0;" parent="WIyWlLk6GJQsqaUBKTNV-1" vertex="1">
          <mxGeometry x="330" y="425" width="120" height="40" as="geometry" />
        </mxCell>
        <mxCell id="y1Mp3N0kVFIcVa1Vwtxq-28" style="edgeStyle=orthogonalEdgeStyle;rounded=0;orthogonalLoop=1;jettySize=auto;html=1;entryX=0.5;entryY=0;entryDx=0;entryDy=0;" parent="WIyWlLk6GJQsqaUBKTNV-1" edge="1">
          <mxGeometry relative="1" as="geometry">
            <mxPoint x="920" y="460" as="sourcePoint" />
            <mxPoint x="919.9999999999998" y="510" as="targetPoint" />
          </mxGeometry>
        </mxCell>
        <mxCell id="y1Mp3N0kVFIcVa1Vwtxq-25" style="edgeStyle=orthogonalEdgeStyle;rounded=0;orthogonalLoop=1;jettySize=auto;html=1;" parent="WIyWlLk6GJQsqaUBKTNV-1" edge="1">
          <mxGeometry relative="1" as="geometry">
            <mxPoint x="620" y="445" as="sourcePoint" />
            <mxPoint x="680.5" y="445" as="targetPoint" />
          </mxGeometry>
        </mxCell>
        <mxCell id="y1Mp3N0kVFIcVa1Vwtxq-30" style="edgeStyle=orthogonalEdgeStyle;rounded=0;orthogonalLoop=1;jettySize=auto;html=1;entryX=0.5;entryY=0;entryDx=0;entryDy=0;" parent="WIyWlLk6GJQsqaUBKTNV-1" target="y1Mp3N0kVFIcVa1Vwtxq-29" edge="1">
          <mxGeometry relative="1" as="geometry">
            <mxPoint x="919.9999999999998" y="550" as="sourcePoint" />
          </mxGeometry>
        </mxCell>
        <mxCell id="y1Mp3N0kVFIcVa1Vwtxq-32" style="edgeStyle=orthogonalEdgeStyle;rounded=0;orthogonalLoop=1;jettySize=auto;html=1;entryX=0.5;entryY=0;entryDx=0;entryDy=0;" parent="WIyWlLk6GJQsqaUBKTNV-1" source="y1Mp3N0kVFIcVa1Vwtxq-29" target="y1Mp3N0kVFIcVa1Vwtxq-31" edge="1">
          <mxGeometry relative="1" as="geometry" />
        </mxCell>
        <mxCell id="y1Mp3N0kVFIcVa1Vwtxq-29" value="Pratinjau CV" style="rounded=1;whiteSpace=wrap;html=1;fontSize=12;glass=0;strokeWidth=1;shadow=0;" parent="WIyWlLk6GJQsqaUBKTNV-1" vertex="1">
          <mxGeometry x="860" y="595" width="120" height="40" as="geometry" />
        </mxCell>
        <mxCell id="y1Mp3N0kVFIcVa1Vwtxq-36" style="edgeStyle=orthogonalEdgeStyle;rounded=0;orthogonalLoop=1;jettySize=auto;html=1;entryX=0.5;entryY=0;entryDx=0;entryDy=0;" parent="WIyWlLk6GJQsqaUBKTNV-1" source="y1Mp3N0kVFIcVa1Vwtxq-31" edge="1">
          <mxGeometry relative="1" as="geometry">
            <mxPoint x="920" y="760" as="targetPoint" />
          </mxGeometry>
        </mxCell>
        <mxCell id="y1Mp3N0kVFIcVa1Vwtxq-31" value="Simpan dalam&lt;div&gt;bentuk format&lt;/div&gt;" style="rounded=1;whiteSpace=wrap;html=1;fontSize=12;glass=0;strokeWidth=1;shadow=0;" parent="WIyWlLk6GJQsqaUBKTNV-1" vertex="1">
          <mxGeometry x="860" y="680" width="120" height="40" as="geometry" />
        </mxCell>
        <mxCell id="y1Mp3N0kVFIcVa1Vwtxq-34" style="edgeStyle=orthogonalEdgeStyle;rounded=0;orthogonalLoop=1;jettySize=auto;html=1;" parent="WIyWlLk6GJQsqaUBKTNV-1" target="WIyWlLk6GJQsqaUBKTNV-3" edge="1">
          <mxGeometry relative="1" as="geometry">
            <mxPoint x="220" y="20" as="sourcePoint" />
          </mxGeometry>
        </mxCell>
        <mxCell id="y1Mp3N0kVFIcVa1Vwtxq-37" value="Mulai" style="strokeWidth=2;html=1;shape=mxgraph.flowchart.start_1;whiteSpace=wrap;" parent="WIyWlLk6GJQsqaUBKTNV-1" vertex="1">
          <mxGeometry x="170" y="-50" width="100" height="60" as="geometry" />
        </mxCell>
        <mxCell id="y1Mp3N0kVFIcVa1Vwtxq-38" value="Masukkan nama,&lt;div&gt;email,dan password&lt;/div&gt;" style="shape=parallelogram;html=1;strokeWidth=2;perimeter=parallelogramPerimeter;whiteSpace=wrap;rounded=1;arcSize=12;size=0.23;" parent="WIyWlLk6GJQsqaUBKTNV-1" vertex="1">
          <mxGeometry x="350" y="280" width="170" height="60" as="geometry" />
        </mxCell>
        <mxCell id="y1Mp3N0kVFIcVa1Vwtxq-39" value="Masukkan nama,&lt;div&gt;email,dan password&lt;/div&gt;" style="shape=parallelogram;html=1;strokeWidth=2;perimeter=parallelogramPerimeter;whiteSpace=wrap;rounded=1;arcSize=12;size=0.23;" parent="WIyWlLk6GJQsqaUBKTNV-1" vertex="1">
          <mxGeometry x="135" y="415" width="170" height="60" as="geometry" />
        </mxCell>
        <mxCell id="y1Mp3N0kVFIcVa1Vwtxq-42" value="Formulir CV" style="strokeWidth=2;html=1;shape=mxgraph.flowchart.document2;whiteSpace=wrap;size=0.25;" parent="WIyWlLk6GJQsqaUBKTNV-1" vertex="1">
          <mxGeometry x="870" y="760" width="100" height="60" as="geometry" />
        </mxCell>
        <mxCell id="y1Mp3N0kVFIcVa1Vwtxq-43" value="Selesai" style="strokeWidth=2;html=1;shape=mxgraph.flowchart.start_1;whiteSpace=wrap;" parent="WIyWlLk6GJQsqaUBKTNV-1" vertex="1">
          <mxGeometry x="870" y="850" width="100" height="60" as="geometry" />
        </mxCell>
        <mxCell id="y1Mp3N0kVFIcVa1Vwtxq-44" style="edgeStyle=orthogonalEdgeStyle;rounded=0;orthogonalLoop=1;jettySize=auto;html=1;entryX=0.5;entryY=0;entryDx=0;entryDy=0;entryPerimeter=0;" parent="WIyWlLk6GJQsqaUBKTNV-1" source="y1Mp3N0kVFIcVa1Vwtxq-42" target="y1Mp3N0kVFIcVa1Vwtxq-43" edge="1">
          <mxGeometry relative="1" as="geometry" />
        </mxCell>
        <mxCell id="y1Mp3N0kVFIcVa1Vwtxq-45" value="Memasukkan&lt;div&gt;data pribadi&lt;/div&gt;" style="shape=parallelogram;html=1;strokeWidth=2;perimeter=parallelogramPerimeter;whiteSpace=wrap;rounded=1;arcSize=12;size=0.23;" parent="WIyWlLk6GJQsqaUBKTNV-1" vertex="1">
          <mxGeometry x="484" y="425" width="150" height="40" as="geometry" />
        </mxCell>
        <mxCell id="y1Mp3N0kVFIcVa1Vwtxq-46" value="Memasukkan keahlian&lt;div&gt;dan sertifikasi&lt;/div&gt;" style="shape=parallelogram;html=1;strokeWidth=2;perimeter=parallelogramPerimeter;whiteSpace=wrap;rounded=1;arcSize=12;size=0.23;" parent="WIyWlLk6GJQsqaUBKTNV-1" vertex="1">
          <mxGeometry x="845" y="510" width="150" height="40" as="geometry" />
        </mxCell>
        <mxCell id="y1Mp3N0kVFIcVa1Vwtxq-50" style="edgeStyle=orthogonalEdgeStyle;rounded=0;orthogonalLoop=1;jettySize=auto;html=1;" parent="WIyWlLk6GJQsqaUBKTNV-1" source="y1Mp3N0kVFIcVa1Vwtxq-47" target="y1Mp3N0kVFIcVa1Vwtxq-49" edge="1">
          <mxGeometry relative="1" as="geometry" />
        </mxCell>
        <mxCell id="y1Mp3N0kVFIcVa1Vwtxq-47" value="Memasukkan&lt;div&gt;riwayat pendidikan&lt;/div&gt;" style="shape=parallelogram;html=1;strokeWidth=2;perimeter=parallelogramPerimeter;whiteSpace=wrap;rounded=1;arcSize=12;size=0.23;" parent="WIyWlLk6GJQsqaUBKTNV-1" vertex="1">
          <mxGeometry x="668" y="424" width="150" height="40" as="geometry" />
        </mxCell>
        <mxCell id="y1Mp3N0kVFIcVa1Vwtxq-49" value="Memasukkan riwayat&lt;div&gt;pengalaman kerja&lt;/div&gt;" style="shape=parallelogram;html=1;strokeWidth=2;perimeter=parallelogramPerimeter;whiteSpace=wrap;rounded=1;arcSize=12;size=0.23;" parent="WIyWlLk6GJQsqaUBKTNV-1" vertex="1">
          <mxGeometry x="845" y="425" width="150" height="40" as="geometry" />
        </mxCell>
        <mxCell id="phlCHsFALphJVlGOY4To-1" style="edgeStyle=orthogonalEdgeStyle;rounded=0;orthogonalLoop=1;jettySize=auto;html=1;entryX=0.5;entryY=0;entryDx=0;entryDy=0;sketch=1;curveFitting=1;jiggle=2;shadow=1;" edge="1" parent="WIyWlLk6GJQsqaUBKTNV-1" source="phlCHsFALphJVlGOY4To-2" target="phlCHsFALphJVlGOY4To-4">
          <mxGeometry relative="1" as="geometry" />
        </mxCell>
        <mxCell id="phlCHsFALphJVlGOY4To-2" value="Start" style="strokeWidth=2;html=1;shape=mxgraph.flowchart.start_2;whiteSpace=wrap;" vertex="1" parent="WIyWlLk6GJQsqaUBKTNV-1">
          <mxGeometry x="1265" y="-70" width="120" height="120" as="geometry" />
        </mxCell>
        <mxCell id="phlCHsFALphJVlGOY4To-3" style="edgeStyle=orthogonalEdgeStyle;rounded=0;orthogonalLoop=1;jettySize=auto;html=1;sketch=1;curveFitting=1;jiggle=2;shadow=1;" edge="1" parent="WIyWlLk6GJQsqaUBKTNV-1" source="phlCHsFALphJVlGOY4To-4" target="phlCHsFALphJVlGOY4To-7">
          <mxGeometry relative="1" as="geometry" />
        </mxCell>
        <mxCell id="phlCHsFALphJVlGOY4To-4" value="Buka Aplikasi" style="rounded=1;whiteSpace=wrap;html=1;absoluteArcSize=1;arcSize=14;strokeWidth=2;sketch=1;curveFitting=1;jiggle=2;shadow=1;" vertex="1" parent="WIyWlLk6GJQsqaUBKTNV-1">
          <mxGeometry x="1230" y="90" width="190" height="50" as="geometry" />
        </mxCell>
        <mxCell id="phlCHsFALphJVlGOY4To-5" style="edgeStyle=orthogonalEdgeStyle;rounded=0;orthogonalLoop=1;jettySize=auto;html=1;entryX=0.5;entryY=0;entryDx=0;entryDy=0;sketch=1;curveFitting=1;jiggle=2;shadow=1;" edge="1" parent="WIyWlLk6GJQsqaUBKTNV-1" source="phlCHsFALphJVlGOY4To-7" target="phlCHsFALphJVlGOY4To-9">
          <mxGeometry relative="1" as="geometry" />
        </mxCell>
        <mxCell id="phlCHsFALphJVlGOY4To-6" style="edgeStyle=orthogonalEdgeStyle;rounded=0;orthogonalLoop=1;jettySize=auto;html=1;entryX=0;entryY=0.5;entryDx=0;entryDy=0;sketch=1;curveFitting=1;jiggle=2;shadow=1;" edge="1" parent="WIyWlLk6GJQsqaUBKTNV-1" source="phlCHsFALphJVlGOY4To-7" target="phlCHsFALphJVlGOY4To-17">
          <mxGeometry relative="1" as="geometry" />
        </mxCell>
        <mxCell id="phlCHsFALphJVlGOY4To-7" value="Apakah anda sudah memiliki akun" style="strokeWidth=2;html=1;shape=mxgraph.flowchart.decision;whiteSpace=wrap;sketch=1;curveFitting=1;jiggle=2;shadow=1;" vertex="1" parent="WIyWlLk6GJQsqaUBKTNV-1">
          <mxGeometry x="1255" y="210" width="140" height="130" as="geometry" />
        </mxCell>
        <mxCell id="phlCHsFALphJVlGOY4To-8" style="edgeStyle=orthogonalEdgeStyle;rounded=0;orthogonalLoop=1;jettySize=auto;html=1;entryX=0.5;entryY=0;entryDx=0;entryDy=0;sketch=1;curveFitting=1;jiggle=2;shadow=1;" edge="1" parent="WIyWlLk6GJQsqaUBKTNV-1" source="phlCHsFALphJVlGOY4To-9" target="phlCHsFALphJVlGOY4To-11">
          <mxGeometry relative="1" as="geometry" />
        </mxCell>
        <mxCell id="phlCHsFALphJVlGOY4To-9" value="Daftar akun" style="rounded=1;whiteSpace=wrap;html=1;absoluteArcSize=1;arcSize=14;strokeWidth=2;sketch=1;curveFitting=1;jiggle=2;shadow=1;" vertex="1" parent="WIyWlLk6GJQsqaUBKTNV-1">
          <mxGeometry x="1230" y="410" width="190" height="50" as="geometry" />
        </mxCell>
        <mxCell id="phlCHsFALphJVlGOY4To-10" style="edgeStyle=orthogonalEdgeStyle;rounded=0;orthogonalLoop=1;jettySize=auto;html=1;entryX=0.5;entryY=0;entryDx=0;entryDy=0;sketch=1;curveFitting=1;jiggle=2;shadow=1;" edge="1" parent="WIyWlLk6GJQsqaUBKTNV-1" source="phlCHsFALphJVlGOY4To-11" target="phlCHsFALphJVlGOY4To-24">
          <mxGeometry relative="1" as="geometry" />
        </mxCell>
        <mxCell id="phlCHsFALphJVlGOY4To-11" value="Isi data diri" style="rounded=1;whiteSpace=wrap;html=1;absoluteArcSize=1;arcSize=14;strokeWidth=2;sketch=1;curveFitting=1;jiggle=2;shadow=1;" vertex="1" parent="WIyWlLk6GJQsqaUBKTNV-1">
          <mxGeometry x="1230" y="520" width="190" height="50" as="geometry" />
        </mxCell>
        <mxCell id="phlCHsFALphJVlGOY4To-12" style="edgeStyle=orthogonalEdgeStyle;rounded=0;orthogonalLoop=1;jettySize=auto;html=1;entryX=0.5;entryY=1;entryDx=0;entryDy=0;sketch=1;curveFitting=1;jiggle=2;shadow=1;" edge="1" parent="WIyWlLk6GJQsqaUBKTNV-1" source="phlCHsFALphJVlGOY4To-17" target="phlCHsFALphJVlGOY4To-19">
          <mxGeometry relative="1" as="geometry" />
        </mxCell>
        <mxCell id="phlCHsFALphJVlGOY4To-13" style="edgeStyle=orthogonalEdgeStyle;rounded=0;orthogonalLoop=1;jettySize=auto;html=1;sketch=1;curveFitting=1;jiggle=2;shadow=1;" edge="1" parent="WIyWlLk6GJQsqaUBKTNV-1" source="phlCHsFALphJVlGOY4To-17" target="phlCHsFALphJVlGOY4To-20">
          <mxGeometry relative="1" as="geometry" />
        </mxCell>
        <mxCell id="phlCHsFALphJVlGOY4To-14" style="edgeStyle=orthogonalEdgeStyle;rounded=0;orthogonalLoop=1;jettySize=auto;html=1;entryX=0;entryY=0.5;entryDx=0;entryDy=0;sketch=1;curveFitting=1;jiggle=2;shadow=1;" edge="1" parent="WIyWlLk6GJQsqaUBKTNV-1" source="phlCHsFALphJVlGOY4To-17" target="phlCHsFALphJVlGOY4To-18">
          <mxGeometry relative="1" as="geometry" />
        </mxCell>
        <mxCell id="phlCHsFALphJVlGOY4To-15" style="edgeStyle=orthogonalEdgeStyle;rounded=0;orthogonalLoop=1;jettySize=auto;html=1;sketch=1;curveFitting=1;jiggle=2;shadow=1;" edge="1" parent="WIyWlLk6GJQsqaUBKTNV-1" source="phlCHsFALphJVlGOY4To-17" target="phlCHsFALphJVlGOY4To-22">
          <mxGeometry relative="1" as="geometry" />
        </mxCell>
        <mxCell id="phlCHsFALphJVlGOY4To-16" style="edgeStyle=orthogonalEdgeStyle;rounded=0;orthogonalLoop=1;jettySize=auto;html=1;entryX=0;entryY=0.5;entryDx=0;entryDy=0;sketch=1;curveFitting=1;jiggle=2;shadow=1;" edge="1" parent="WIyWlLk6GJQsqaUBKTNV-1" source="phlCHsFALphJVlGOY4To-17" target="phlCHsFALphJVlGOY4To-21">
          <mxGeometry relative="1" as="geometry" />
        </mxCell>
        <mxCell id="phlCHsFALphJVlGOY4To-17" value="Masuk Akun" style="rounded=1;whiteSpace=wrap;html=1;absoluteArcSize=1;arcSize=14;strokeWidth=2;sketch=1;curveFitting=1;jiggle=2;shadow=1;" vertex="1" parent="WIyWlLk6GJQsqaUBKTNV-1">
          <mxGeometry x="1535" y="250" width="190" height="50" as="geometry" />
        </mxCell>
        <mxCell id="phlCHsFALphJVlGOY4To-18" value="Pilih lokasi pengambilan" style="rounded=1;whiteSpace=wrap;html=1;absoluteArcSize=1;arcSize=14;strokeWidth=2;sketch=1;curveFitting=1;jiggle=2;shadow=1;" vertex="1" parent="WIyWlLk6GJQsqaUBKTNV-1">
          <mxGeometry x="1965" y="140" width="190" height="50" as="geometry" />
        </mxCell>
        <mxCell id="phlCHsFALphJVlGOY4To-19" value="Cek saldo" style="rounded=1;whiteSpace=wrap;html=1;absoluteArcSize=1;arcSize=14;strokeWidth=2;sketch=1;curveFitting=1;jiggle=2;shadow=1;" vertex="1" parent="WIyWlLk6GJQsqaUBKTNV-1">
          <mxGeometry x="1735" y="90" width="190" height="50" as="geometry" />
        </mxCell>
        <mxCell id="phlCHsFALphJVlGOY4To-20" value="Pilih jenis sampah" style="rounded=1;whiteSpace=wrap;html=1;absoluteArcSize=1;arcSize=14;strokeWidth=2;sketch=1;curveFitting=1;jiggle=2;shadow=1;" vertex="1" parent="WIyWlLk6GJQsqaUBKTNV-1">
          <mxGeometry x="1975" y="250" width="190" height="50" as="geometry" />
        </mxCell>
        <mxCell id="phlCHsFALphJVlGOY4To-21" value="Ajukan penukaran" style="rounded=1;whiteSpace=wrap;html=1;absoluteArcSize=1;arcSize=14;strokeWidth=2;sketch=1;curveFitting=1;jiggle=2;shadow=1;" vertex="1" parent="WIyWlLk6GJQsqaUBKTNV-1">
          <mxGeometry x="1965" y="380" width="190" height="50" as="geometry" />
        </mxCell>
        <mxCell id="phlCHsFALphJVlGOY4To-22" value="Lihat riwayat" style="rounded=1;whiteSpace=wrap;html=1;absoluteArcSize=1;arcSize=14;strokeWidth=2;sketch=1;curveFitting=1;jiggle=2;shadow=1;" vertex="1" parent="WIyWlLk6GJQsqaUBKTNV-1">
          <mxGeometry x="1735" y="430" width="190" height="50" as="geometry" />
        </mxCell>
        <mxCell id="phlCHsFALphJVlGOY4To-23" style="edgeStyle=orthogonalEdgeStyle;rounded=0;orthogonalLoop=1;jettySize=auto;html=1;sketch=1;curveFitting=1;jiggle=2;shadow=1;" edge="1" parent="WIyWlLk6GJQsqaUBKTNV-1" source="phlCHsFALphJVlGOY4To-24" target="phlCHsFALphJVlGOY4To-26">
          <mxGeometry relative="1" as="geometry" />
        </mxCell>
        <mxCell id="phlCHsFALphJVlGOY4To-24" value="Akhiri pendaftaran" style="rounded=1;whiteSpace=wrap;html=1;absoluteArcSize=1;arcSize=14;strokeWidth=2;sketch=1;curveFitting=1;jiggle=2;shadow=1;" vertex="1" parent="WIyWlLk6GJQsqaUBKTNV-1">
          <mxGeometry x="1230" y="620" width="190" height="50" as="geometry" />
        </mxCell>
        <mxCell id="phlCHsFALphJVlGOY4To-25" style="edgeStyle=orthogonalEdgeStyle;rounded=0;orthogonalLoop=1;jettySize=auto;html=1;entryX=0.5;entryY=1;entryDx=0;entryDy=0;sketch=1;curveFitting=1;jiggle=2;shadow=1;" edge="1" parent="WIyWlLk6GJQsqaUBKTNV-1" source="phlCHsFALphJVlGOY4To-26" target="phlCHsFALphJVlGOY4To-17">
          <mxGeometry relative="1" as="geometry" />
        </mxCell>
        <mxCell id="phlCHsFALphJVlGOY4To-26" value="Verifikasi akun" style="rounded=1;whiteSpace=wrap;html=1;absoluteArcSize=1;arcSize=14;strokeWidth=2;sketch=1;curveFitting=1;jiggle=2;shadow=1;" vertex="1" parent="WIyWlLk6GJQsqaUBKTNV-1">
          <mxGeometry x="1230" y="720" width="190" height="50" as="geometry" />
        </mxCell>
      </root>
    </mxGraphModel>
  </diagram>
</mxfile>
